<?xml version="1.0" encoding="UTF-8"?>
<svg version="1.1" xmlns="http://www.w3.org/2000/svg" width="512" height="512">
<path d="M0 0 C0.79223969 -0.00067474 1.58447937 -0.00134949 2.40072632 -0.00204468 C59.25704146 0.0744164 114.17205717 19.08538068 158.875 54.25 C159.75027344 54.93191406 160.62554687 55.61382812 161.52734375 56.31640625 C187.59987833 77.10551973 208.34425829 102.36622037 224.875 131.25 C225.24093262 131.88325195 225.60686523 132.51650391 225.98388672 133.16894531 C240.91199099 159.25523083 250.38455411 188.58732389 254.875 218.25 C255.05232666 219.36882568 255.22965332 220.48765137 255.41235352 221.64038086 C257.09376341 233.36235947 257.23234341 244.98498976 257.1875 256.8125 C257.18534485 257.83290375 257.1831897 258.8533075 257.18096924 259.90463257 C257.13136184 274.52376161 256.9134806 288.89451182 253.875 303.25 C253.66037109 304.26739258 253.44574219 305.28478516 253.22460938 306.33300781 C247.60820304 332.22572407 239.3604592 356.83606394 226.875 380.25 C226.53388184 380.89888184 226.19276367 381.54776367 225.84130859 382.21630859 C217.35435374 398.26918408 206.86580155 412.64905923 194.875 426.25 C194.19308594 427.03117187 193.51117188 427.81234375 192.80859375 428.6171875 C191.65894998 429.9331944 190.50570221 431.24606819 189.34765625 432.5546875 C188.00144467 434.1044377 186.71587615 435.70633509 185.4375 437.3125 C182.85385271 440.27424201 180.14683753 442.73726902 177.16015625 445.27734375 C174.60990849 447.47883968 172.15433273 449.76802239 169.6875 452.0625 C147.56820457 472.19594709 108.42132061 501.70687803 77.1875 502.8125 C72.46884484 502.47997732 69.7253437 500.76992518 66.125 497.8125 C63.04911411 493.96764264 63.72372772 488.90318421 63.71728516 484.21533203 C63.71220444 483.40818253 63.70712372 482.60103302 63.70188904 481.76942444 C63.69119809 480.01740728 63.68257292 478.26537657 63.67576981 476.51334 C63.66393709 473.72829446 63.64446834 470.94340097 63.62265015 468.15841675 C63.56121498 460.23977837 63.50722216 452.32115305 63.47363281 444.40234375 C63.45251798 439.55408453 63.41707416 434.70609914 63.37287521 429.85799789 C63.3588377 428.02190278 63.35002089 426.18575918 63.34682083 424.34961319 C63.31300712 406.79025894 61.77996064 390.14181207 50.20703125 376.00390625 C48.81448275 374.170316 47.87731372 372.3168216 46.875 370.25 C47.63417725 370.12471924 48.39335449 369.99943848 49.17553711 369.87036133 C84.07244213 364.04848983 119.49921162 355.65866561 141.375 325.1875 C161.15526107 296.24638275 167.07711941 257.13606393 160.84375 222.890625 C157.51121553 206.15909861 150.0756924 189.4506924 137.875 177.25 C138.00311071 172.8351078 138.76706214 168.51514424 139.875 164.25 C143.66443067 147.77171813 141.34719139 131.52976601 136.77734375 115.4921875 C136.01443368 112.75099547 135.38688533 110.0468992 134.875 107.25 C112.23678275 109.12717891 86.51652186 117.02680738 69.25390625 132.6171875 C63.83108455 135.23769556 59.12971699 133.45356247 53.4375 132.125 C51.09045992 131.62470475 48.74280415 131.12728888 46.39453125 130.6328125 C45.26740723 130.38950195 44.1402832 130.14619141 42.97900391 129.89550781 C11.71054574 123.39292771 -20.78811134 125.45879227 -51.78125 132.12890625 C-52.71380615 132.32121826 -53.6463623 132.51353027 -54.60717773 132.71166992 C-56.68934095 133.15685269 -58.75585554 133.67454017 -60.81640625 134.2109375 C-65.72935009 134.26894156 -68.58966889 132.01399044 -72.5625 129.3125 C-74.15702143 128.28548115 -75.75474355 127.26341628 -77.35546875 126.24609375 C-78.15388184 125.73675293 -78.95229492 125.22741211 -79.77490234 124.70263672 C-96.21934453 114.53803761 -113.84127282 108.48990124 -133.125 107.25 C-134.15862215 110.90799613 -135.14804767 114.57648241 -136.125 118.25 C-136.53685547 119.74853516 -136.53685547 119.74853516 -136.95703125 121.27734375 C-141.08583809 137.40613107 -141.78491042 155.39764928 -136.125 171.25 C-135.5625 174.125 -135.5625 174.125 -136.125 177.25 C-137.64961992 179.22412792 -139.34370888 180.98199079 -141.0546875 182.796875 C-153.22661241 197.21945772 -160.39874241 218.52518464 -161.125 237.25 C-161.16496094 238.27222656 -161.20492187 239.29445312 -161.24609375 240.34765625 C-161.87469252 274.3289665 -155.34584903 309.31153309 -131.53271484 334.88354492 C-121.81829879 344.89957925 -110.81808331 351.61227582 -98.125 357.25 C-97.06796875 357.72179687 -96.0109375 358.19359375 -94.921875 358.6796875 C-79.05103497 365.23149582 -62.05437984 368.03477264 -45.125 370.25 C-46.46826386 373.14121554 -48.01509623 375.51115693 -50 378 C-54.51150575 384.00074066 -56.89263655 388.7715285 -58.11230469 396.26733398 C-58.76830755 399.93938024 -59.55119688 402.82029698 -61.125 406.25 C-65.54661249 409.20503805 -69.93003744 410.31860916 -75.125 411.25 C-76.5171875 411.53617187 -76.5171875 411.53617187 -77.9375 411.828125 C-92.8640953 413.80370379 -107.09647518 413.26560008 -119.8125 404.625 C-128.07775648 398.19118165 -133.99928871 390.71883299 -139.45703125 381.8515625 C-146.54347733 370.79869813 -157.06915575 363.26675327 -169.625 359.5 C-175.43934555 358.91856545 -180.78981416 358.4963557 -186.125 361.25 C-184.4321855 368.23285983 -177.6626294 372.17424068 -172.125 376.125 C-160.476804 384.79289585 -153.64540307 397.41216668 -148.0625 410.5 C-145.18763026 417.20247006 -142.26320378 422.95742958 -137.125 428.25 C-136.48304688 428.930625 -135.84109375 429.61125 -135.1796875 430.3125 C-122.57299118 442.5935621 -105.42954441 447.03835441 -88.21386719 447.29492188 C-82.18416769 447.16525092 -76.18339376 446.30656296 -70.22045898 445.44946289 C-67.51646749 445.19207491 -64.83934904 445.22084454 -62.125 445.25 C-62.0742473 451.85193597 -62.03924424 458.45382153 -62.01513672 465.0559082 C-62.00508556 467.30137004 -61.99144256 469.54681881 -61.97412109 471.79223633 C-61.94983419 475.02167997 -61.93850793 478.25095038 -61.9296875 481.48046875 C-61.91420364 482.98386055 -61.91420364 482.98386055 -61.89840698 484.5176239 C-61.89825592 485.45822159 -61.89810486 486.39881927 -61.89794922 487.36791992 C-61.893508 488.19176682 -61.88906677 489.01561371 -61.88449097 489.86442566 C-62.38810613 494.85971167 -64.33434172 498.03368388 -68.125 501.25 C-76.92109611 504.18203204 -84.60483966 501.46985246 -92.8125 498 C-93.89974365 497.54963379 -94.9869873 497.09926758 -96.10717773 496.63525391 C-126.7838054 483.6675381 -156.1660608 465.62745489 -179.125 441.25 C-179.970625 440.404375 -180.81625 439.55875 -181.6875 438.6875 C-182.8940625 437.4809375 -182.8940625 437.4809375 -184.125 436.25 C-184.68316406 435.72664063 -185.24132812 435.20328125 -185.81640625 434.6640625 C-191.76734413 428.96558865 -196.74456491 422.64644243 -201.71484375 416.10009766 C-203.05614306 414.34033897 -204.41713004 412.59755518 -205.78125 410.85546875 C-235.73048469 371.99494176 -255.07766489 319.6143219 -255.328125 270.3359375 C-255.33513931 269.41174011 -255.34215363 268.48754272 -255.34938049 267.53533936 C-255.36680898 264.56517625 -255.37323376 261.59521238 -255.375 258.625 C-255.37567474 257.61145447 -255.37634949 256.59790894 -255.37704468 255.5536499 C-255.36151835 240.90172964 -254.9569623 226.66572867 -252.125 212.25 C-251.96402832 211.35442383 -251.80305664 210.45884766 -251.63720703 209.53613281 C-243.85593562 166.52610813 -224.54014854 125.47889903 -196.125 92.25 C-195.16602188 91.10600895 -194.20772649 89.96144534 -193.25 88.81640625 C-184.90229301 78.89067267 -176.12135848 69.54730745 -166.125 61.25 C-165.6084082 60.81961426 -165.09181641 60.38922852 -164.55957031 59.94580078 C-118.00388681 21.349806 -60.55789783 0.04661764 0 0 Z " fill="#3E77BF" transform="translate(255.125,4.75)"/>
<path d="M0 0 C5.61808769 -0.15692982 10.60174697 0.25602607 16.0625 1.5625 C16.79710449 1.73813477 17.53170898 1.91376953 18.28857422 2.09472656 C25.3465399 3.90134716 31.70245057 6.69637724 38.15283203 10.04248047 C40.01767268 11.00916101 41.89601683 11.94478695 43.77734375 12.87890625 C52.81792222 17.44755017 60.93818509 22.88917625 69 29 C69.56541504 29.42120117 70.13083008 29.84240234 70.71337891 30.27636719 C80.11464478 37.29447784 88.66130525 45.07159798 97.07983398 53.23388672 C98.98583397 55.03707964 98.98583397 55.03707964 101.12524414 56.64501953 C106.90544129 61.16830492 108.843359 65.35139029 110.6875 72.375 C110.96875732 73.37088135 111.25001465 74.3667627 111.53979492 75.39282227 C118.17614005 99.61916151 121.40751318 123.50264575 121.3125 148.5625 C121.30926727 150.09310562 121.30926727 150.09310562 121.30596924 151.65463257 C121.25636184 166.27376161 121.0384806 180.64451182 118 195 C117.78537109 196.01739258 117.57074219 197.03478516 117.34960938 198.08300781 C111.73320304 223.97572407 103.4854592 248.58606394 91 272 C90.65888184 272.64888184 90.31776367 273.29776367 89.96630859 273.96630859 C81.47935374 290.01918408 70.99080155 304.39905923 59 318 C58.31808594 318.78117187 57.63617188 319.56234375 56.93359375 320.3671875 C55.78394998 321.6831944 54.63070221 322.99606819 53.47265625 324.3046875 C52.12644467 325.8544377 50.84087615 327.45633509 49.5625 329.0625 C46.97885271 332.02424201 44.27183753 334.48726902 41.28515625 337.02734375 C38.73490849 339.22883968 36.27933273 341.51802239 33.8125 343.8125 C11.69320457 363.94594709 -27.45367939 393.45687803 -58.6875 394.5625 C-63.40615516 394.22997732 -66.1496563 392.51992518 -69.75 389.5625 C-72.82588589 385.71764264 -72.15127228 380.65318421 -72.15771484 375.96533203 C-72.16279556 375.15818253 -72.16787628 374.35103302 -72.17311096 373.51942444 C-72.18380191 371.76740728 -72.19242708 370.01537657 -72.19923019 368.26334 C-72.21106291 365.47829446 -72.23053166 362.69340097 -72.25234985 359.90841675 C-72.31378502 351.98977837 -72.36777784 344.07115305 -72.40136719 336.15234375 C-72.42248202 331.30408453 -72.45792584 326.45609914 -72.50212479 321.60799789 C-72.5161623 319.77190278 -72.52497911 317.93575918 -72.52817917 316.09961319 C-72.56199288 298.54025894 -74.09503936 281.89181207 -85.66796875 267.75390625 C-87.06051725 265.920316 -87.99768628 264.0668216 -89 262 C-88.24082275 261.87471924 -87.48164551 261.74943848 -86.69946289 261.62036133 C-51.80255787 255.79848983 -16.37578838 247.40866561 5.5 216.9375 C25.28026107 187.99638275 31.20211941 148.88606393 24.96875 114.640625 C21.63621553 97.90909861 14.2006924 81.2006924 2 69 C2.12811071 64.5851078 2.89206214 60.26514424 4 56 C7.79906403 39.47982764 5.48868492 23.19662461 0.8046875 7.14453125 C0 4 0 4 0 0 Z " fill="#114C82" transform="translate(391,113)"/>
<path d="M0 0 C0.79223969 -0.00067474 1.58447937 -0.00134949 2.40072632 -0.00204468 C59.25704146 0.0744164 114.17205717 19.08538068 158.875 54.25 C159.75027344 54.93191406 160.62554687 55.61382812 161.52734375 56.31640625 C178.37787948 69.75229597 193.02951582 84.97407768 205.875 102.25 C205.545 102.91 205.215 103.57 204.875 104.25 C204.27196045 103.59366577 204.27196045 103.59366577 203.65673828 102.92407227 C158.93772474 54.38384772 97.41359451 22.64545785 30.875 19.25 C8.63431687 18.45038699 -13.2847878 18.55245477 -35.125 23.25 C-36.17671387 23.46962402 -37.22842773 23.68924805 -38.31201172 23.91552734 C-78.10545554 32.37215783 -114.51355816 49.6344859 -146.125 75.25 C-146.67478516 75.69537109 -147.22457031 76.14074219 -147.79101562 76.59960938 C-161.46884819 87.78482655 -174.4420448 100.14348029 -185.125 114.25 C-185.63740234 114.91306152 -186.14980469 115.57612305 -186.67773438 116.25927734 C-213.46862128 151.00036757 -229.87696684 190.30202122 -238.125 233.25 C-238.42410278 234.74623901 -238.42410278 234.74623901 -238.72924805 236.27270508 C-240.64706078 247.37380818 -240.46181999 258.56332168 -240.44067383 269.79663086 C-240.43752865 273.28075922 -240.46098709 276.76402379 -240.48632812 280.24804688 C-240.52497665 294.18588109 -239.52962881 307.52576784 -237.125 321.25 C-236.90866756 322.57688024 -236.69386886 323.9040119 -236.48095703 325.23144531 C-231.22049394 356.86984596 -216.68673741 392.57521965 -197.125 418.25 C-197.455 418.91 -197.785 419.57 -198.125 420.25 C-232.78722609 379.9781866 -255.05715516 323.64964241 -255.328125 270.3359375 C-255.33513931 269.41174011 -255.34215363 268.48754272 -255.34938049 267.53533936 C-255.36680898 264.56517625 -255.37323376 261.59521238 -255.375 258.625 C-255.37567474 257.61145447 -255.37634949 256.59790894 -255.37704468 255.5536499 C-255.36151835 240.90172964 -254.9569623 226.66572867 -252.125 212.25 C-251.96402832 211.35442383 -251.80305664 210.45884766 -251.63720703 209.53613281 C-243.85593562 166.52610813 -224.54014854 125.47889903 -196.125 92.25 C-195.16602188 91.10600895 -194.20772649 89.96144534 -193.25 88.81640625 C-184.90229301 78.89067267 -176.12135848 69.54730745 -166.125 61.25 C-165.6084082 60.81961426 -165.09181641 60.38922852 -164.55957031 59.94580078 C-118.00388681 21.349806 -60.55789783 0.04661764 0 0 Z " fill="#6AA7E8" transform="translate(255.125,4.75)"/>
<path d="M0 0 C0.99 0 1.98 0 3 0 C4.62016013 2.07829529 6.00130725 4.07848573 7.375 6.3125 C7.77420654 6.9511499 8.17341309 7.5897998 8.5847168 8.24780273 C19.63120154 26.24074484 23.41630238 45.08793251 23.3125 65.9375 C23.30926727 67.1009343 23.30926727 67.1009343 23.30596924 68.28787231 C23.25200782 80.39254071 22.80668233 92.17329148 20 104 C19.80664062 104.81919922 19.61328125 105.63839844 19.4140625 106.48242188 C15.45980752 122.50691813 8.96304949 137.49566011 -2 150 C-2.57878906 150.72058594 -3.15757812 151.44117188 -3.75390625 152.18359375 C-23.4615849 175.92332356 -56.19566417 186.46357074 -85.953125 189.5390625 C-86.68176758 189.60561035 -87.41041016 189.6721582 -88.16113281 189.74072266 C-90.09219424 189.91361555 -90.09219424 189.91361555 -92 191 C-91.55269531 191.46148437 -91.10539062 191.92296875 -90.64453125 192.3984375 C-79.19346687 204.75289075 -75.85820415 220.19122317 -75.88647461 236.70117188 C-75.88632858 237.42410431 -75.88618256 238.14703674 -75.8860321 238.89187622 C-75.88672162 241.25086606 -75.89446837 243.60977417 -75.90234375 245.96875 C-75.90421135 247.61641395 -75.90563364 249.26407846 -75.90663147 250.91174316 C-75.9104297 255.22547976 -75.92023668 259.53918211 -75.93133545 263.85290527 C-75.94160779 268.2639113 -75.94614151 272.67492293 -75.95117188 277.0859375 C-75.96186162 285.72397396 -75.9789053 294.36198271 -76 303 C-83.6328125 303.28125 -83.6328125 303.28125 -86.9375 300.75 C-90.4499325 296.06675667 -90.14988028 291.66605378 -90.15771484 285.96533203 C-90.16279556 285.15818253 -90.16787628 284.35103302 -90.17311096 283.51942444 C-90.18380191 281.76740728 -90.19242708 280.01537657 -90.19923019 278.26334 C-90.21106291 275.47829446 -90.23053166 272.69340097 -90.25234985 269.90841675 C-90.31378502 261.98977837 -90.36777784 254.07115305 -90.40136719 246.15234375 C-90.42248202 241.30408453 -90.45792584 236.45609914 -90.50212479 231.60799789 C-90.5161623 229.77190278 -90.52497911 227.93575918 -90.52817917 226.09961319 C-90.56199288 208.54025894 -92.09503936 191.89181207 -103.66796875 177.75390625 C-105.06051725 175.920316 -105.99768628 174.0668216 -107 172 C-106.24082275 171.87471924 -105.48164551 171.74943848 -104.69946289 171.62036133 C-69.80255787 165.79848983 -34.37578838 157.40866561 -12.5 126.9375 C7.31229277 97.94951618 13.11095666 58.96971543 6.99609375 24.6796875 C5.86410207 18.96672222 4.08430681 13.56377196 2.0859375 8.1015625 C1.13643559 5.38967574 0.47650866 2.82728472 0 0 Z " fill="#093F68" transform="translate(409,203)"/>
<path d="M0 0 C0.53367187 0.30292969 1.06734375 0.60585938 1.6171875 0.91796875 C4.06863544 2.29637806 6.53340579 3.64889541 9 5 C9.78117188 5.44214844 10.56234375 5.88429688 11.3671875 6.33984375 C25.06167294 13.7258859 40.86113736 14.87545012 56.125 13.2578125 C60.75605144 12.842528 65.35326303 12.93885872 70 13 C70 19.27 70 25.54 70 32 C65.91625168 32.08179615 61.8341818 32.14088706 57.75 32.1875 C56.61046875 32.21263672 55.4709375 32.23777344 54.296875 32.26367188 C36.7091476 32.41356728 21.99290871 26.57218516 9.29052734 14.49682617 C5.44865283 10.67604761 2.43777552 6.87555104 0 2 C0 1.34 0 0.68 0 0 Z " fill="#124D84" transform="translate(122,438)"/>
<path d="M0 0 C0.67482422 0.51046875 0.67482422 0.51046875 1.36328125 1.03125 C2.75551843 2.08031048 4.15181457 3.12399303 5.55078125 4.1640625 C7.1870258 5.3905935 8.8095644 6.63561923 10.41796875 7.8984375 C32.40668135 24.73094669 59.12857785 30.27330642 86 34 C84.60701445 37.00131187 82.96044932 39.51057409 80.9375 42.125 C78.76773805 44.93627263 78.76773805 44.93627263 77 48 C71.82194581 48.20069977 67.31391024 47.59860179 62.375 46.125 C61.65425293 45.91012939 60.93350586 45.69525879 60.19091797 45.47387695 C46.23080991 41.05707775 32.19213085 34.51786087 21 25 C20.09378906 24.25363281 19.18757813 23.50726563 18.25390625 22.73828125 C11.15664533 16.62538384 5.20705135 9.77104409 0 2 C0 1.34 0 0.68 0 0 Z " fill="#134E85" transform="translate(124,341)"/>
<path d="M0 0 C2.64 0 5.28 0 8 0 C8.7946154 2.49909575 9.58574403 4.99921143 10.375 7.5 C10.59671875 8.19609375 10.8184375 8.8921875 11.046875 9.609375 C11.71588928 11.73447918 12.35940837 13.8661774 13 16 C13.37898438 17.21945313 13.75796875 18.43890625 14.1484375 19.6953125 C15.55236837 25.49632635 15.28902201 31.44365481 15.25 37.375 C15.25773437 38.54289062 15.26546875 39.71078125 15.2734375 40.9140625 C15.2528895 50.07846998 14.17788465 58.37431309 11 67 C7.84420367 66.70989316 7.02798085 66.0328907 4.9296875 63.56640625 C4.25164062 62.57511719 3.57359375 61.58382812 2.875 60.5625 C0.16549894 56.5908281 0.16549894 56.5908281 -3 53 C-3.046875 51.15234375 -3.046875 51.15234375 -2.75 48.9375 C-2.64171875 48.12152344 -2.5334375 47.30554688 -2.421875 46.46484375 C-2.04570072 44.26701069 -1.55519615 42.15769415 -1 40 C2.00945326 26.94395089 1.00604044 13.23330122 0 0 Z " fill="#093F68" transform="translate(396,129)"/>
<path d="M0 0 C0.66 0.33 1.32 0.66 2 1 C-7.9 10.9 -17.8 20.8 -28 31 C-28 27.45056577 -27.52203294 27.11510857 -25.17578125 24.62890625 C-24.56484619 23.97728516 -23.95391113 23.32566406 -23.32446289 22.65429688 C-22.66051514 21.96400391 -21.99656738 21.27371094 -21.3125 20.5625 C-20.6414624 19.85544922 -19.9704248 19.14839844 -19.27905273 18.41992188 C-13.11483427 11.98819822 -6.65132629 5.92226017 0 0 Z " fill="#5D99DC" transform="translate(90,65)"/>
<path d="M0 0 C3.17090332 3.02651193 5.38518598 6.39591928 7.75 10.0625 C8.17410156 10.69994141 8.59820312 11.33738281 9.03515625 11.99414062 C10.08862735 13.6223883 11.05231028 15.30799645 12 17 C11.67 17.66 11.34 18.32 11 19 C1.40546697 7.66287016 1.40546697 7.66287016 -2 1 C-1.34 0.67 -0.68 0.34 0 0 Z " fill="#5995D9" transform="translate(46,406)"/>
<path d="M0 0 C2.93200474 2.85276137 5.64315404 5.65079784 8 9 C7.67 9.66 7.34 10.32 7 11 C5.82439821 9.73742767 4.65977135 8.46462916 3.5 7.1875 C2.8503125 6.47980469 2.200625 5.77210937 1.53125 5.04296875 C0 3 0 3 0 0 Z " fill="#5792D6" transform="translate(453,98)"/>
</svg>
