<?xml version="1.0" encoding="UTF-8"?>
<svg version="1.1" xmlns="http://www.w3.org/2000/svg" width="512" height="512">
<path d="M0 0 C1.7591249 -0.0046167 3.51824594 -0.01097476 5.27735901 -0.01890898 C10.08006637 -0.03551976 14.88245348 -0.02739368 19.68516159 -0.0149641 C24.87679909 -0.00588199 30.06838304 -0.01989898 35.26000977 -0.03088379 C45.41808014 -0.04863991 55.57603207 -0.04484197 65.73410702 -0.03323323 C73.99218147 -0.02418773 82.2502228 -0.02297973 90.50830078 -0.02732849 C91.6850899 -0.02794142 92.86187902 -0.02855436 94.07432842 -0.02918586 C96.46519598 -0.0304648 98.85606353 -0.03176166 101.24693108 -0.03307623 C123.64897982 -0.04447351 146.05096303 -0.03138167 168.45300102 -0.00987476 C187.6614085 0.00799543 206.86971927 0.00489108 226.078125 -0.0135498 C248.40179536 -0.03497154 270.72540832 -0.04337495 293.04908752 -0.03110075 C295.43099975 -0.0298266 297.81291198 -0.02856911 300.19482422 -0.02732849 C301.36667109 -0.02671139 302.53851797 -0.02609429 303.74587536 -0.02545848 C311.99091664 -0.0220095 320.23592141 -0.0278242 328.48095703 -0.0372467 C338.53336681 -0.04848253 348.58565169 -0.04539329 358.63804722 -0.02412373 C363.7637424 -0.0136347 368.8892296 -0.00945487 374.0149231 -0.02272034 C378.71283678 -0.03469452 383.41035092 -0.02799921 388.10822868 -0.00681013 C389.80186509 -0.0023653 391.49553569 -0.0045623 393.18914986 -0.01431328 C410.07465731 -0.1040259 423.97696552 3.43297617 436.6015625 15.25793457 C447.63433217 27.03677268 451.98745086 40.33995312 451.85949707 56.29699707 C451.86573703 57.51583084 451.871977 58.73466461 451.87840605 59.99043274 C451.89149105 63.33395603 451.88693176 66.67656547 451.87446117 70.02003098 C451.86534285 73.64111034 451.87941372 77.26211468 451.89038086 80.88317871 C451.90809893 87.96114186 451.90435622 95.03893464 451.8927303 102.11690426 C451.88366967 107.87307563 451.8824833 113.62919951 451.88682556 119.38537598 C451.88743849 120.20691886 451.88805143 121.02846174 451.88868293 121.87489986 C451.88996193 123.54423143 451.89125878 125.21356298 451.8925733 126.88289452 C451.90395943 142.50925855 451.89089635 158.13552847 451.86937183 173.76187706 C451.85150263 187.14863082 451.85460729 200.53524581 451.87304688 213.92199707 C451.89448843 229.49524721 451.90286098 245.06841502 451.89059782 260.64167786 C451.88932372 262.30461628 451.88806624 263.96755472 451.88682556 265.63049316 C451.88620846 266.44853393 451.88559136 267.26657469 451.88495556 268.10940456 C451.8815125 273.85375901 451.88730839 279.59806092 451.89674377 285.34240723 C451.90800174 292.34989995 451.90484438 299.35721361 451.8836208 306.36468601 C451.87316111 309.93500679 451.8689007 313.50502982 451.88221741 317.0753479 C451.89647444 320.95668831 451.87936796 324.83754897 451.85949707 328.71887207 C451.86841996 329.83164017 451.87734284 330.94440826 451.88653612 332.09089661 C451.74198334 346.72382798 446.55462022 359.22040573 436.4765625 369.82043457 C429.27275401 376.58178266 421.7789096 380.61292247 412.3515625 383.50793457 C411.78719628 383.68593432 411.22283006 383.86393407 410.64136183 384.04732776 C407.48191648 384.68286906 404.4573446 384.63624108 401.23430443 384.63936234 C400.51343783 384.64141497 399.79257122 384.6434676 399.04986018 384.64558244 C396.62163251 384.65126051 394.19346142 384.64979419 391.76522827 384.64837646 C390.01173736 384.65095964 388.25824703 384.65397267 386.50475752 384.65737987 C381.67602767 384.66545878 376.84731267 384.66723994 372.01857686 384.66797733 C366.81458591 384.66982636 361.6106027 384.67737297 356.40661621 384.68411255 C345.02224824 384.6977031 333.63788378 384.70372182 322.25350904 384.70812321 C315.14630655 384.71088461 308.03910541 384.7151218 300.93190384 384.71962738 C281.25815351 384.73182138 261.58440428 384.74212018 241.91065025 384.74550247 C240.02133082 384.74583182 240.02133082 384.74583182 238.09384332 384.74616782 C236.83126247 384.7463861 235.56868162 384.74660438 234.26784074 384.74682927 C231.70932221 384.74727274 229.15080368 384.7477193 226.59228516 384.74816895 C225.32316837 384.74839038 224.05405159 384.7486118 222.74647672 384.74883994 C202.18344964 384.75278772 181.62045801 384.77024056 161.05744462 384.79352847 C139.95089666 384.81723917 118.8443665 384.82970421 97.73780501 384.83087039 C85.88520543 384.83178735 74.03265202 384.83754489 62.18006516 384.85569 C52.08675727 384.87108722 41.99350982 384.8762137 31.90019242 384.8679519 C26.75065264 384.86404397 21.60123457 384.86498203 16.45170975 384.87900925 C11.73516368 384.89173949 7.01883089 384.89055827 2.30228515 384.87841853 C0.59833294 384.87646002 -1.10563433 384.87954712 -2.80956538 384.8882629 C-11.49297755 384.92985808 -19.45911615 384.79621942 -27.6484375 381.50793457 C-28.55335937 381.17793457 -29.45828125 380.84793457 -30.390625 380.50793457 C-43.10331211 374.54740728 -53.05642407 363.77991386 -57.9609375 350.69543457 C-59.63448778 345.80188882 -60.77265955 341.58264022 -60.77986526 336.38969994 C-60.78370641 335.34985085 -60.78754755 334.31000176 -60.7915051 333.2386421 C-60.79020537 331.52709705 -60.79020537 331.52709705 -60.78887939 329.78097534 C-60.79333608 327.96108437 -60.79333608 327.96108437 -60.7978828 326.10442793 C-60.80506352 322.73508683 -60.80774215 319.36579671 -60.80848026 315.99645162 C-60.81033154 312.36302574 -60.81787933 308.7296109 -60.82461548 305.09619141 C-60.83819731 297.1497308 -60.8442235 289.20327523 -60.84862614 281.25680494 C-60.85138924 276.29372647 -60.85562676 271.33064994 -60.86013031 266.36757278 C-60.87232359 252.62318481 -60.88262226 238.8787984 -60.8860054 225.13440514 C-60.88622497 224.25471309 -60.88644453 223.37502104 -60.88667075 222.46867166 C-60.88688903 221.58688415 -60.88710731 220.70509664 -60.8873322 219.7965883 C-60.88777567 218.00977794 -60.88822223 216.22296758 -60.88867188 214.43615723 C-60.8888933 213.54983913 -60.88911473 212.66352104 -60.88934287 211.75034483 C-60.89328921 197.39517604 -60.91073793 183.04005807 -60.9340314 168.68490891 C-60.95775972 153.94259019 -60.97020795 139.20029694 -60.97137332 124.45795882 C-60.97228933 116.18239743 -60.97802295 107.90690223 -60.99619293 99.6313591 C-61.01161402 92.582981 -61.01670261 85.53468954 -61.00845483 78.48629777 C-61.0045552 74.8921429 -61.00544406 71.29816237 -61.01951218 67.70402908 C-61.03464704 63.80154328 -61.02636405 59.89930115 -61.01593018 55.99679565 C-61.02398658 54.86914996 -61.03204298 53.74150426 -61.04034352 52.57968748 C-60.99757962 45.73019219 -60.01171624 39.93843428 -57.6484375 33.50793457 C-57.1534375 32.15055176 -57.1534375 32.15055176 -56.6484375 30.76574707 C-50.87423653 18.45045907 -40.40553719 8.55529067 -27.87582397 3.3578229 C-18.52269744 0.19715474 -9.73431797 -0.05604531 0 0 Z " fill="#F34336" transform="translate(60.6484375,63.4920654296875)"/>
<path d="M0 0 C0.33 0 0.66 0 1 0 C1.00634791 1.92711885 1.00634791 1.92711885 1.01282406 3.8931694 C1.11345344 34.37590234 1.21915388 64.85861299 1.33111694 95.34130625 C1.34488687 99.09146966 1.35861391 102.84163322 1.37231445 106.59179688 C1.37504276 107.33840133 1.37777106 108.08500578 1.38058204 108.85423461 C1.42468252 120.95039481 1.4653074 133.04656432 1.50465261 145.14274082 C1.54508788 157.55031056 1.58924706 169.957863 1.63687855 182.36540723 C1.66616265 190.02432919 1.69252619 197.68324986 1.71517897 205.34219435 C1.73284654 211.21055002 1.7556899 217.0788783 1.78049088 222.9472084 C1.78986217 225.35790787 1.79753717 227.7686146 1.80341911 230.1793251 C1.8116789 233.46225823 1.82595538 236.74511107 1.84178162 240.02801514 C1.84324878 241.4696437 1.84324878 241.4696437 1.84474558 242.94039607 C1.85022002 243.81920916 1.85569446 244.69802225 1.8613348 245.60346603 C1.86399284 246.36138781 1.86665089 247.11930959 1.86938947 247.9001987 C2.00568165 250.09134291 2.25299076 251.93225754 3 254 C5.49034386 255.29660434 5.49034386 255.29660434 8 256 C8 256.33 8 256.66 8 257 C-109.81 257 -227.62 257 -349 257 C-345 254 -345 254 -343 254 C-342.18528436 251.13767446 -341.87180091 248.59145774 -341.8613348 245.6190834 C-341.85586036 244.74375371 -341.85038591 243.86842402 -341.84474558 242.96656919 C-341.84376747 242.00937443 -341.84278936 241.05217967 -341.84178162 240.065979 C-341.83437465 238.53564565 -341.83437465 238.53564565 -341.82681805 236.97439647 C-341.81142397 233.54575816 -341.80307722 230.11713861 -341.79467773 226.68847656 C-341.78510072 224.23471409 -341.77509074 221.78095328 -341.76467896 219.32719421 C-341.74321789 214.03923337 -341.7247773 208.75127512 -341.70907402 203.46329498 C-341.68636449 195.81775859 -341.65822316 188.1722498 -341.62875474 180.52673683 C-341.58109213 168.12249168 -341.53782433 155.71823526 -341.49731445 143.31396484 C-341.45795276 131.26415122 -341.41652492 119.21434763 -341.37231445 107.16455078 C-341.36959018 106.42183978 -341.36686591 105.67912877 -341.36405908 104.91391137 C-341.35037949 101.18796004 -341.33665924 97.46200886 -341.32291877 93.73605776 C-341.20897489 62.8240592 -341.10223404 31.91203961 -341 1 C-337.85329267 2.22610967 -335.13461515 3.42346857 -332.390625 5.3984375 C-331.39579102 6.10806641 -331.39579102 6.10806641 -330.38085938 6.83203125 C-329.67767578 7.34121094 -328.97449219 7.85039062 -328.25 8.375 C-326.72405541 9.46628159 -325.19801097 10.55742356 -323.671875 11.6484375 C-322.50688477 12.4852002 -322.50688477 12.4852002 -321.31835938 13.33886719 C-317.72633362 15.91259752 -314.11280691 18.45556852 -310.5 21 C-309.08321589 21.99983361 -307.66654955 22.99983411 -306.25 24 C-305.198125 24.7425 -305.198125 24.7425 -304.125 25.5 C-212.75 90 -212.75 90 -210.62304688 91.50146484 C-209.21299897 92.49673555 -207.80284352 93.49185391 -206.39257812 94.48681641 C-201.99680469 97.5884595 -197.60539639 100.6961768 -193.21655273 103.80761719 C-191.06635858 105.3280761 -188.91073752 106.84053916 -186.75390625 108.3515625 C-184.54607533 109.89939931 -182.37376731 111.46901579 -180.21484375 113.0859375 C-176.44796167 115.83841051 -173.10117141 118.13780173 -168.1953125 117.6953125 C-163.5153311 116.21304081 -159.69746798 113.18111707 -155.77929688 110.30078125 C-153.88479059 108.91577446 -151.96933801 107.56465949 -150.046875 106.21875 C-146.423368 103.68089835 -142.81283379 101.12531943 -139.20556641 98.56445312 C-135.64162513 96.03647707 -132.07054374 93.51863739 -128.5 91 C-127.08329723 90.00005115 -125.6666306 89.00005109 -124.25 88 C-30.75 22 -30.75 22 -28.62109375 20.49731445 C-27.21735753 19.50639431 -25.81371034 18.51534802 -24.41015625 17.52416992 C-20.67140867 14.8841581 -16.93073099 12.24693312 -13.1875 9.61328125 C-12.40310547 9.06091797 -11.61871094 8.50855469 -10.81054688 7.93945312 C-9.29678592 6.87355044 -7.78248266 5.80841739 -6.26757812 4.74414062 C-2.99153112 2.546919 -2.99153112 2.546919 0 0 Z " fill="#F9F9F9" transform="translate(426,191)"/>
<path d="M0 0 C131.67 0 263.34 0 399 0 C381.94602137 13.6431829 364.28015903 26.49464666 346.55664062 39.24829102 C341.02231775 43.2395758 335.55103073 47.30828605 330.10205078 51.41503906 C322.5867322 57.07602442 315.00388079 62.64460722 307.42333984 68.21777344 C303.44677482 71.14230746 299.47353729 74.07135433 295.5 77 C293.91668304 78.16668888 292.33334969 79.33335553 290.75 80.5 C289.96625 81.0775 289.1825 81.655 288.375 82.25 C243.25 115.5 243.25 115.5 240.87231445 117.25195312 C239.29790018 118.41206491 237.72351837 119.57222076 236.14916992 120.73242188 C232.05464781 123.74975078 227.95946939 126.76618312 223.86328125 129.78125 C223.01765625 130.40386719 222.17203125 131.02648437 221.30078125 131.66796875 C219.69812842 132.84794391 218.09527917 134.02765236 216.4921875 135.20703125 C215.75871094 135.74714844 215.02523437 136.28726563 214.26953125 136.84375 C213.55877441 137.36195313 212.84801758 137.88015625 212.11572266 138.4140625 C210.66733414 139.49976891 209.24574132 140.62189955 207.84912109 141.7734375 C207.16027832 142.33289063 206.47143555 142.89234375 205.76171875 143.46875 C205.15674561 143.97857422 204.55177246 144.48839844 203.9284668 145.01367188 C202 146 202 146 199.51342773 145.82495117 C196.90172256 144.96774362 195.20628742 143.98773403 193.0234375 142.33203125 C192.28029297 141.77580078 191.53714844 141.21957031 190.77148438 140.64648438 C189.98064453 140.04126953 189.18980469 139.43605469 188.375 138.8125 C186.66423487 137.52711431 184.95329246 136.24196453 183.2421875 134.95703125 C182.37045898 134.29783691 181.49873047 133.63864258 180.60058594 132.95947266 C176.59194195 129.93906553 172.54551374 126.97072666 168.5 124 C166.91645773 122.83361695 165.333125 121.66694935 163.75 120.5 C162.574375 119.63375 162.574375 119.63375 161.375 118.75 C40.25 29.5 40.25 29.5 37.87207031 27.74755859 C36.29886296 26.58854066 34.72529886 25.43000679 33.15136719 24.27197266 C29.03495224 21.24228443 24.92625712 18.20282179 20.828125 15.1484375 C19.97798828 14.51679687 19.12785156 13.88515625 18.25195312 13.234375 C16.6337415 12.03176964 15.01770189 10.82623372 13.40429688 9.6171875 C9.07651016 6.40637111 4.73824413 3.56968266 0 1 C0 0.67 0 0.34 0 0 Z " fill="#ECEEF0" transform="translate(56,64)"/>
<path d="M0 0 C0.33 0 0.66 0 1 0 C1.00634791 1.92711885 1.00634791 1.92711885 1.01282406 3.8931694 C1.11345344 34.37590234 1.21915388 64.85861299 1.33111694 95.34130625 C1.34488687 99.09146966 1.35861391 102.84163322 1.37231445 106.59179688 C1.37504276 107.33840133 1.37777106 108.08500578 1.38058204 108.85423461 C1.42468252 120.95039481 1.4653074 133.04656432 1.50465261 145.14274082 C1.54508788 157.55031056 1.58924706 169.957863 1.63687855 182.36540723 C1.66616265 190.02432919 1.69252619 197.68324986 1.71517897 205.34219435 C1.73284654 211.21055002 1.7556899 217.0788783 1.78049088 222.9472084 C1.78986217 225.35790787 1.79753717 227.7686146 1.80341911 230.1793251 C1.8116789 233.46225823 1.82595538 236.74511107 1.84178162 240.02801514 C1.84324878 241.4696437 1.84324878 241.4696437 1.84474558 242.94039607 C1.85022002 243.81920916 1.85569446 244.69802225 1.8613348 245.60346603 C1.86399284 246.36138781 1.86665089 247.11930959 1.86938947 247.9001987 C2.00568165 250.09134291 2.25299076 251.93225754 3 254 C5.49034386 255.29660434 5.49034386 255.29660434 8 256 C8 256.33 8 256.66 8 257 C-109.81 257 -227.62 257 -349 257 C-345 254 -345 254 -343 254 C-342.18528436 251.13767446 -341.87180091 248.59145774 -341.8613348 245.6190834 C-341.85586036 244.74375371 -341.85038591 243.86842402 -341.84474558 242.96656919 C-341.84376747 242.00937443 -341.84278936 241.05217967 -341.84178162 240.065979 C-341.83437465 238.53564565 -341.83437465 238.53564565 -341.82681805 236.97439647 C-341.81142397 233.54575816 -341.80307722 230.11713861 -341.79467773 226.68847656 C-341.78510072 224.23471409 -341.77509074 221.78095328 -341.76467896 219.32719421 C-341.74321789 214.03923337 -341.7247773 208.75127512 -341.70907402 203.46329498 C-341.68636449 195.81775859 -341.65822316 188.1722498 -341.62875474 180.52673683 C-341.58109213 168.12249168 -341.53782433 155.71823526 -341.49731445 143.31396484 C-341.45795276 131.26415122 -341.41652492 119.21434763 -341.37231445 107.16455078 C-341.36959018 106.42183978 -341.36686591 105.67912877 -341.36405908 104.91391137 C-341.35037949 101.18796004 -341.33665924 97.46200886 -341.32291877 93.73605776 C-341.20897489 62.8240592 -341.10223404 31.91203961 -341 1 C-340.67 1 -340.34 1 -340 1 C-340 79.87 -340 158.74 -340 240 C-327.73757715 231.59182194 -327.73757715 231.59182194 -315.5625 223.0625 C-314.13673868 222.05335725 -312.71095683 221.04424353 -311.28515625 220.03515625 C-310.57762207 219.53387207 -309.87008789 219.03258789 -309.14111328 218.51611328 C-305.59702704 216.00656077 -302.0482939 213.50359782 -298.5 211 C-297.08331078 210.00003196 -295.66664412 209.00003195 -294.25 208 C-263.08333333 186 -231.91666667 164 -200.75 142 C-199.6966748 141.25580811 -199.6966748 141.25580811 -198.62207031 140.49658203 C-197.21686505 139.50556636 -195.8099829 138.51692381 -194.40136719 137.53076172 C-190.66653243 134.91117808 -186.97671823 132.24652833 -183.328125 129.5078125 C-182.56177734 128.94191406 -181.79542969 128.37601563 -181.00585938 127.79296875 C-179.53255185 126.7036141 -178.06968554 125.59995438 -176.61914062 124.48046875 C-171.731925 120.89936031 -171.731925 120.89936031 -168.5 121.34375 C-167.675 121.8903125 -166.85 122.436875 -166 123 C-165.43829102 123.36851074 -164.87658203 123.73702148 -164.29785156 124.11669922 C-162.24889557 125.49368577 -160.24947945 126.92716429 -158.25 128.375 C-156.72405541 129.46628159 -155.19801097 130.55742356 -153.671875 131.6484375 C-152.89521484 132.2062793 -152.11855469 132.76412109 -151.31835938 133.33886719 C-147.72633362 135.91259752 -144.11280691 138.45556852 -140.5 141 C-139.08321589 141.99983361 -137.66654955 142.99983411 -136.25 144 C-135.54875 144.495 -134.8475 144.99 -134.125 145.5 C-42.75 210 -42.75 210 -40.62402344 211.50073242 C-39.21066613 212.49836774 -37.79725487 213.49592662 -36.38378906 214.4934082 C-32.79103769 217.02895646 -29.19930153 219.56592224 -25.609375 222.10546875 C-24.87912109 222.62173828 -24.14886719 223.13800781 -23.39648438 223.66992188 C-22.03804778 224.6303452 -20.6799336 225.59122484 -19.32226562 226.55273438 C-12.9131374 231.0825429 -6.45404363 235.53181595 0 240 C0 160.8 0 81.6 0 0 Z " fill="#CFD7DB" transform="translate(426,191)"/>
<path d="M0 0 C0 78.87 0 157.74 0 239 C-4.50641145 237.19743542 -7.77190011 235.13468646 -11.5625 232.25 C-17.59283824 227.74425342 -23.69852378 223.36573396 -29.875 219.0625 C-30.72368652 218.47065918 -31.57237305 217.87881836 -32.44677734 217.26904297 C-34.14717939 216.08332572 -35.8476989 214.89777691 -37.54833984 213.71240234 C-41.27040054 211.11266786 -44.97992544 208.49533588 -48.6875 205.875 C-49.3769873 205.38781494 -50.06647461 204.90062988 -50.77685547 204.39868164 C-52.15909731 203.42182597 -53.54125919 202.44485714 -54.92333984 201.46777344 C-58.44767516 198.97679014 -61.97394701 196.48855097 -65.5 194 C-66.91667568 193.00001278 -68.33334236 192.00001278 -69.75 191 C-70.801875 190.2575 -70.801875 190.2575 -71.875 189.5 C-129.25 149 -129.25 149 -131.37597656 147.49926758 C-132.78933387 146.50163226 -134.20274513 145.50407338 -135.61621094 144.5065918 C-139.20896231 141.97104354 -142.80069847 139.43407776 -146.390625 136.89453125 C-147.11386963 136.38325684 -147.83711426 135.87198242 -148.58227539 135.34521484 C-150.0116638 134.33454918 -151.44054936 133.3231719 -152.86889648 132.31103516 C-156.21088691 129.9475996 -159.56443126 127.60672969 -162.95703125 125.31640625 C-163.56772461 124.90221436 -164.17841797 124.48802246 -164.80761719 124.0612793 C-166.45259465 122.94929467 -168.10306243 121.8454442 -169.75390625 120.7421875 C-170.86572266 119.87980469 -170.86572266 119.87980469 -172 119 C-172 118.34 -172 117.68 -172 117 C-170.84371094 116.78085937 -169.68742187 116.56171875 -168.49609375 116.3359375 C-163.56627215 115.09509069 -160.0852576 112.64589212 -156.0625 109.625 C-154.5640392 108.53352856 -153.06533439 107.44239205 -151.56640625 106.3515625 C-150.80859863 105.7937207 -150.05079102 105.23587891 -149.27001953 104.66113281 C-145.71403382 102.05896818 -142.10621267 99.5318348 -138.5 97 C-137.08305338 96.00039672 -135.66638729 95.00039566 -134.25 94 C-103.08333333 72 -71.91666667 50 -40.75 28 C-39.69727905 27.25689575 -39.69727905 27.25689575 -38.62329102 26.4987793 C-37.21233902 25.50282273 -35.80136909 24.50689157 -34.39038086 23.51098633 C-30.76112916 20.94933426 -27.13222851 18.38718714 -23.50390625 15.82421875 C-19.95838114 13.31976624 -16.41134288 10.81746796 -12.86376953 8.31591797 C-11.15612192 7.11023018 -9.45098006 5.90099546 -7.74609375 4.69140625 C-6.83988281 4.05074219 -5.93367187 3.41007813 -5 2.75 C-3.8553125 1.93789062 -3.8553125 1.93789062 -2.6875 1.109375 C-1 0 -1 0 0 0 Z " fill="#EDEDED" transform="translate(426,192)"/>
</svg>
